<?xml version="1.0" encoding="utf-8"?>
<!-- Generator: Adobe Illustrator 22.1.0, SVG Export Plug-In . SVG Version: 6.00 Build 0)  -->
<svg version="1.1" id="Layer_2_1_" xmlns="http://www.w3.org/2000/svg" xmlns:xlink="http://www.w3.org/1999/xlink" x="0px" y="0px"
	 viewBox="0 0 186.8 186.8" style="enable-background:new 0 0 186.8 186.8;" xml:space="preserve">
<style type="text/css">
	.st0{fill:#FFFFFF;}
</style>
<path class="st0" d="M170.4,125.5c-2.5-1.4-5.6-1.7-7.9-1.1c-1.2,0.3-3.8,0.2-3.9-5.1c-0.1-6.1-3.4-12.9-9.8-16.7
	c-4.9-2.8-10.5-3.3-15.5-1.8c-3,0.9-6.8-0.9-6.8-7.4s3.8-8.3,6.8-7.4c5,1.5,10.6,1.1,15.5-1.8c6.5-3.7,9.7-10.6,9.8-16.7
	c0.1-5.3,2.7-5.5,3.9-5.1c2.3,0.6,5.4,0.3,7.9-1.1c5.1-2.9,6.8-9.5,3.9-14.6c-2.9-5.1-9.5-6.9-14.6-3.9c-2.5,1.4-4.3,3.9-4.9,6.3
	c-0.3,1.2-1.7,3.4-6.4,0.8c-5.3-2.9-12.9-3.5-19.4,0.2c-4.9,2.8-8.1,7.5-9.3,12.6c-0.7,3.1-4.2,5.4-9.8,2.2c-5.6-3.2-5.3-7.4-3-9.6
	c3.8-3.6,6.2-8.7,6.2-14.3c0-7.5-4.3-13.7-9.5-16.9c-4.6-2.8-3.4-5.1-2.5-6c1.7-1.7,3-4.5,3-7.4C104.1,4.8,99.3,0,93.4,0
	S82.7,4.8,82.7,10.7c0,2.9,1.3,5.7,3,7.4c0.9,0.9,2.1,3.2-2.5,6c-5.2,3.2-9.5,9.4-9.5,16.9c0,5.7,2.4,10.8,6.2,14.3
	c2.3,2.2,2.6,6.4-3,9.6s-9.1,0.9-9.8-2.2c-1.2-5.1-4.4-9.7-9.3-12.6c-6.5-3.7-14-3.1-19.4-0.2c-4.7,2.6-6.1,0.4-6.4-0.8
	c-0.6-2.3-2.4-4.8-4.9-6.3c-5.1-2.9-11.6-1.2-14.6,3.9c-2.9,5.1-1.1,11.7,4,14.6c2.5,1.4,5.6,1.7,7.9,1.1c1.2-0.3,3.8-0.2,3.9,5.1
	c0.1,6.1,3.4,12.9,9.8,16.7C43,87,48.6,87.5,53.6,86c3-0.9,6.8,0.9,6.8,7.4s-3.8,8.3-6.8,7.4c-5-1.5-10.6-1.1-15.5,1.8
	c-6.5,3.7-9.7,10.6-9.8,16.7c-0.1,5.3-2.7,5.5-3.9,5.1c-2.3-0.6-5.4-0.3-7.9,1.1c-5.1,2.9-6.8,9.5-3.9,14.6
	c2.9,5.1,9.5,6.9,14.6,3.9c2.5-1.4,4.3-3.9,4.9-6.3c0.3-1.2,1.7-3.4,6.4-0.8c5.3,2.9,12.9,3.5,19.4-0.2c4.9-2.8,8.1-7.5,9.3-12.6
	c0.7-3.1,4.2-5.4,9.8-2.2c5.6,3.2,5.3,7.4,3,9.6c-3.8,3.6-6.2,8.7-6.2,14.3c0,7.5,4.3,13.7,9.5,16.9c4.6,2.8,3.4,5.1,2.5,6
	c-1.7,1.7-3,4.5-3,7.4c0,5.9,4.8,10.7,10.7,10.7c5.9,0,10.7-4.8,10.7-10.7c0-2.9-1.3-5.7-3-7.4c-0.9-0.9-2.1-3.2,2.5-6
	c5.2-3.2,9.5-9.4,9.5-16.9c0-5.7-2.4-10.8-6.2-14.3c-2.3-2.2-2.6-6.4,3-9.6c5.6-3.2,9.1-0.9,9.8,2.2c1.2,5.1,4.4,9.7,9.3,12.6
	c6.5,3.7,14,3.1,19.4,0.2c4.7-2.6,6.1-0.4,6.4,0.8c0.6,2.3,2.4,4.8,4.9,6.3c5.1,2.9,11.6,1.2,14.6-3.9
	C177.2,135,175.5,128.5,170.4,125.5z M133.5,57.9c5.1-2.9,11.6-1.2,14.6,3.9c2.9,5.1,1.2,11.6-3.9,14.6c-5.1,2.9-11.6,1.2-14.6-3.9
	C126.7,67.4,128.4,60.9,133.5,57.9z M57.2,72.5c-2.9,5.1-9.5,6.8-14.6,3.9s-6.8-9.5-3.9-14.6s9.5-6.8,14.6-3.9
	C58.4,60.9,60.1,67.4,57.2,72.5z M53.3,128.9c-5.1,2.9-11.6,1.2-14.6-3.9c-2.9-5.1-1.2-11.6,3.9-14.6c5.1-2.9,11.6-1.2,14.6,3.9
	C60.1,119.4,58.4,125.9,53.3,128.9z M93.4,30.3c5.9,0,10.7,4.8,10.7,10.7s-4.8,10.7-10.7,10.7c-5.9,0-10.7-4.8-10.7-10.7
	C82.7,35,87.5,30.3,93.4,30.3z M93.4,156.6c-5.9,0-10.7-4.8-10.7-10.7s4.8-10.7,10.7-10.7s10.7,4.8,10.7,10.7
	C104.1,151.8,99.3,156.6,93.4,156.6z M93.4,113.1c-10.9,0-19.7-8.8-19.7-19.7s8.8-19.7,19.7-19.7s19.7,8.8,19.7,19.7
	S104.3,113.1,93.4,113.1z M148.1,125c-2.9,5.1-9.5,6.8-14.6,3.9c-5.1-2.9-6.8-9.5-3.9-14.6c2.9-5.1,9.5-6.8,14.6-3.9
	C149.3,113.4,151,119.9,148.1,125z"/>
</svg>
